<?xml version="1.0" encoding="utf-8"?>
<!-- Generator: Adobe Illustrator 24.0.2, SVG Export Plug-In . SVG Version: 6.00 Build 0)  -->
<svg version="1.1" id="Layer_1" xmlns="http://www.w3.org/2000/svg" xmlns:xlink="http://www.w3.org/1999/xlink" x="0px" y="0px"
	 viewBox="0 0 50 50" style="enable-background:new 0 0 50 50;" xml:space="preserve">
<style type="text/css">
	.st0{fill:#FFFFFF;}
</style>
<path class="st0" d="M24.2,15h15c0.3,0,0.5-0.4,0.5-1s-0.2-1-0.5-1h-15c-0.3,0-0.5,0.4-0.5,1S23.9,15,24.2,15z"/>
<path class="st0" d="M8.2,37h16.2c0.3,0,0.5-0.4,0.5-1s-0.2-1-0.5-1H8.2c-0.3,0-0.5,0.4-0.5,1S7.9,37,8.2,37z"/>
<path class="st0" d="M8.7,26h30c0.6,0,1-0.4,1-1s-0.4-1-1-1h-30c-0.6,0-1,0.4-1,1S8.1,26,8.7,26z"/>
</svg>
